<svg xmlns="http://www.w3.org/2000/svg" viewBox="0 0 512 512" role="img" aria-label="NeonPocket Console icon"><defs><filter id="g" x="-50%" y="-50%" width="200%" height="200%"><feGaussianBlur stdDeviation="3" result="b"/><feMerge><feMergeNode in="b"/><feMergeNode in="SourceGraphic"/></feMerge></filter><linearGradient id="s" x1="0" y1="0" x2="1" y2="1"><stop stop-color="#151515"/><stop offset="1" stop-color="#050505"/></linearGradient></defs><rect width="512" height="512" rx="112" fill="#020202"/><g transform="translate(256 265) rotate(45)" fill="url(#s)" stroke="#f7f7f7" stroke-width="6" stroke-linejoin="round"><rect x="-118" y="-118" width="236" height="236" rx="30" opacity=".95"/><rect x="-96" y="-96" width="192" height="192" rx="24" fill="#050505" stroke="#a970ff" stroke-width="9" filter="url(#g)"/><circle cx="0" cy="-132" r="5" fill="#fff"/><circle cx="132" cy="0" r="5" fill="#fff"/><circle cx="0" cy="132" r="5" fill="#fff"/><circle cx="-132" cy="0" r="5" fill="#fff"/></g><g transform="translate(256 286) rotate(45)" fill="#070707" stroke="#f6f6f6" stroke-width="5" stroke-linejoin="round"><rect x="-120" y="-120" width="240" height="240" rx="28" opacity=".76"/><g filter="url(#g)" stroke="#a970ff" stroke-width="7"><rect x="-88" y="-88" width="76" height="76" rx="15"/><rect x="12" y="-88" width="76" height="76" rx="15"/><rect x="-88" y="12" width="76" height="76" rx="15"/><rect x="12" y="12" width="76" height="76" rx="15"/></g></g><g transform="translate(256 338) rotate(45)" fill="#050505" stroke="#777" stroke-width="5"><rect x="-122" y="-122" width="244" height="244" rx="30" opacity=".9"/></g></svg>