<svg xmlns="http://www.w3.org/2000/svg" viewBox="0 0 1200 630" role="img" aria-label="NeonPocket Console social preview"><title>NeonPocket Console</title><desc>Mobile-first Neon.tech management console with secure API-key access and real project operations. Producer: WebustaLLC. Contact: info@webusta.org.</desc><defs><filter id="glow" x="-50%" y="-50%" width="200%" height="200%"><feGaussianBlur stdDeviation="5" result="b"/><feMerge><feMergeNode in="b"/><feMergeNode in="SourceGraphic"/></feMerge></filter><linearGradient id="bg" x1="0" y1="0" x2="1" y2="1"><stop stop-color="#020202"/><stop offset=".6" stop-color="#050505"/><stop offset="1" stop-color="#10071c"/></linearGradient><linearGradient id="violet" x1="0" y1="0" x2="1" y2="1"><stop stop-color="#c8a4ff"/><stop offset="1" stop-color="#8f4dff"/></linearGradient></defs><rect width="1200" height="630" fill="url(#bg)"/><rect x="28" y="28" width="1144" height="574" rx="34" fill="none" stroke="#8f6aff" stroke-opacity=".75"/><g fill="#fff" opacity=".9"><circle cx="68" cy="69" r="2.5"/><circle cx="89" cy="69" r="2.5"/><circle cx="110" cy="69" r="2.5"/><circle cx="131" cy="69" r="2.5"/><circle cx="68" cy="91" r="2.5"/><circle cx="89" cy="91" r="2.5"/><circle cx="110" cy="91" r="2.5"/><circle cx="131" cy="91" r="2.5"/></g><text x="92" y="182" font-family="Inter, Orbitron, Arial, sans-serif" font-size="78" font-weight="500" fill="#fff" letter-spacing="-2">NeonPocket</text><text x="92" y="258" font-family="Inter, Orbitron, Arial, sans-serif" font-size="72" font-weight="400" fill="#fff" letter-spacing="-1">Console</text><line x1="164" y1="292" x2="462" y2="292" stroke="#fff" stroke-opacity=".45"/><circle cx="325" cy="292" r="5" fill="#fff"/><text x="92" y="338" font-family="Inter, Arial, sans-serif" font-size="27" fill="#fff">Mobile-first Neon.tech management console</text><text x="92" y="375" font-family="Inter, Arial, sans-serif" font-size="27" fill="#fff">with secure API-key access and</text><text x="92" y="412" font-family="Inter, Arial, sans-serif" font-size="27" fill="#fff">real project operations.</text><g font-family="Inter, Arial, sans-serif" fill="#fff"><text x="146" y="475" font-size="15" font-weight="700" letter-spacing="1.5">PRODUCER</text><text x="146" y="507" font-size="27">WebustaLLC</text><text x="407" y="475" font-size="15" font-weight="700" letter-spacing="1.5">CONTACT</text><text x="407" y="507" font-size="27">info@webusta.org</text><line x1="330" y1="459" x2="330" y2="512" stroke="#fff" stroke-opacity=".35"/><path d="M102 489c0-19 37-19 37 0v14h-37zM111 461a10 10 0 1 0 20 0 10 10 0 0 0-20 0z" fill="none" stroke="#fff" stroke-width="2"/><path d="M351 466h40v29h-40zM351 466l20 17 20-17" fill="none" stroke="#fff" stroke-width="3" stroke-linejoin="round"/></g><g transform="translate(860 328) rotate(45)" fill="#070707" stroke="#fff" stroke-width="4" stroke-linejoin="round"><rect x="-112" y="-112" width="224" height="224" rx="30" opacity=".9"/><rect x="-80" y="-80" width="160" height="160" rx="24" fill="#000" stroke="#fff" stroke-width="8" filter="url(#glow)"/><circle cx="0" cy="-126" r="4" fill="#fff"/><circle cx="126" cy="0" r="4" fill="#fff"/><circle cx="0" cy="126" r="4" fill="#fff"/><circle cx="-126" cy="0" r="4" fill="#fff"/></g><g transform="translate(860 374) rotate(45)" fill="#050505" stroke="#fff" stroke-width="3.5" stroke-linejoin="round"><rect x="-114" y="-114" width="228" height="228" rx="27" opacity=".75"/><rect x="-82" y="-82" width="74" height="74" rx="14"/><rect x="8" y="-82" width="74" height="74" rx="14"/><rect x="-82" y="8" width="74" height="74" rx="14"/><rect x="8" y="8" width="74" height="74" rx="14"/></g><g transform="translate(860 431) rotate(45)" fill="#030303" stroke="#fff" stroke-width="3"><rect x="-118" y="-118" width="236" height="236" rx="30" opacity=".8"/></g><circle cx="1098" cy="90" r="34" fill="none" stroke="#fff"/><text x="1078" y="113" font-family="Inter, Arial, sans-serif" font-size="54" fill="#fff">N</text><rect x="92" y="550" width="430" height="43" rx="22" fill="none" stroke="#fff" stroke-opacity=".4"/><text x="150" y="579" font-family="Inter, Arial, sans-serif" font-size="17" fill="#fff" letter-spacing="2">SECURE. REAL-TIME. BUILT FOR DEVELOPERS.</text><path d="M115 560l16 6v14l-16 9-16-9v-14z" fill="none" stroke="#fff" stroke-width="2"/></svg>