<svg xmlns="http://www.w3.org/2000/svg" viewBox="0 0 512 512" role="img" aria-label="NeonPocket Console PWA icon"><defs><filter id="g" x="-50%" y="-50%" width="200%" height="200%"><feGaussianBlur stdDeviation="3.5" result="b"/><feMerge><feMergeNode in="b"/><feMergeNode in="SourceGraphic"/></feMerge></filter><linearGradient id="bg" x1="0" y1="0" x2="1" y2="1"><stop stop-color="#070707"/><stop offset="1" stop-color="#000"/></linearGradient><linearGradient id="metal" x1="0" y1="0" x2="1" y2="1"><stop stop-color="#191919"/><stop offset=".55" stop-color="#060606"/><stop offset="1" stop-color="#111"/></linearGradient></defs><rect width="512" height="512" rx="116" fill="url(#bg)"/><rect x="18" y="18" width="476" height="476" rx="102" fill="none" stroke="#33264a" stroke-width="7"/><g transform="translate(256 354) rotate(45)" fill="url(#metal)" stroke="#777" stroke-width="5"><rect x="-132" y="-132" width="264" height="264" rx="32" opacity=".85"/></g><g transform="translate(256 296) rotate(45)" fill="#070707" stroke="#f4f4f4" stroke-width="5" stroke-linejoin="round"><rect x="-128" y="-128" width="256" height="256" rx="31" opacity=".74"/><g filter="url(#g)" stroke="#a970ff" stroke-width="7"><rect x="-92" y="-92" width="82" height="82" rx="16"/><rect x="10" y="-92" width="82" height="82" rx="16"/><rect x="-92" y="10" width="82" height="82" rx="16"/><rect x="10" y="10" width="82" height="82" rx="16"/></g></g><g transform="translate(256 230) rotate(45)" fill="url(#metal)" stroke="#f7f7f7" stroke-width="6" stroke-linejoin="round"><rect x="-128" y="-128" width="256" height="256" rx="32" opacity=".98"/><rect x="-95" y="-95" width="190" height="190" rx="25" fill="#050505" stroke="#a970ff" stroke-width="10" filter="url(#g)"/><circle cx="0" cy="-142" r="5" fill="#fff"/><circle cx="142" cy="0" r="5" fill="#fff"/><circle cx="0" cy="142" r="5" fill="#fff"/><circle cx="-142" cy="0" r="5" fill="#fff"/></g></svg>